<svg width="362" height="274" viewBox="0 0 362 274" fill="none" xmlns="http://www.w3.org/2000/svg">
<path d="M74.4038 226.962C74.4535 227.065 78.113 224.25 78.1628 224.353C78.2125 224.455 77.1285 228.137 77.1634 228.209C77.1733 228.234 77.8048 227.745 77.8097 227.758M61.9036 234.681C62.0379 234.959 67.4675 230.457 67.6018 230.728C67.6565 230.843 66.1946 236.061 66.2444 236.17C66.2692 236.224 73.3695 231.144 73.3994 231.204M60.7699 233.506C61.1578 234.314 83.1101 216.935 83.498 217.742C83.8808 218.538 58.4827 235.067 58.8158 235.76C58.8556 235.844 64.2057 231.885 64.2555 231.988M114.679 248.842C114.962 249.439 129.6 237.694 129.889 238.297C130.013 238.55 124.713 245.805 124.812 246.016C125.091 246.595 141.703 233.645 141.936 234.139C142.215 234.718 123.544 256.984 123.907 257.749C124.086 258.116 139.47 246.45 139.654 246.83C139.873 247.288 125.135 264.679 125.444 265.317C125.568 265.571 136.581 257.297 136.686 257.52C136.77 257.695 132.857 263.22 132.942 263.401C132.982 263.485 135.274 261.708 135.299 261.768M309.888 251.922C310.405 252.994 337.917 231.036 338.439 232.12C338.881 233.042 305.413 254.754 305.9 255.772C306.263 256.532 332.755 235.79 333.243 236.809C333.536 237.417 320.862 254.663 321.15 255.272C321.483 255.959 337.201 243.377 337.474 243.949C337.817 244.66 318.813 261.852 319.092 262.437C319.37 263.015 339.901 247.119 340.219 247.782C340.537 248.439 323.094 266.788 323.428 267.475C323.661 267.957 338.225 256.7 338.409 257.086C338.538 257.357 331.895 264.799 332.005 265.022C332.179 265.384 341.666 257.803 341.85 258.195C342.054 258.617 331.378 268.831 331.512 269.12C331.557 269.216 344.47 259.984 344.525 260.093M294.3 259.448C294.778 260.442 332.825 231.367 333.317 232.385C333.829 233.452 300.481 256.013 300.998 257.092C301.048 257.194 304.533 254.513 304.578 254.609M291.053 258.99C291.665 260.256 337.782 224.835 338.414 226.143C339.035 227.432 285.092 262.527 285.962 264.335C286.002 264.42 291.153 260.617 291.193 260.708M279.508 264.872C280.239 266.39 332.616 225.932 333.377 227.51C334.083 228.975 281.397 262.154 282.277 263.992C282.327 264.094 285.131 261.913 285.166 261.985M347.831 172.445C348.02 172.837 359.804 163.599 359.998 164.003C360.132 164.286 352.624 172.102 352.729 172.319C352.838 172.548 358.467 167.992 358.591 168.251C358.695 168.468 351.918 173.699 352.033 173.94C352.112 174.102 355.011 171.583 355.115 171.8M234.489 233.151C236.165 236.64 345.097 151.559 346.857 155.217C348.204 158.019 232.307 230.783 233.763 233.814C235.434 237.297 350.586 149.131 351.903 151.873C353.514 155.223 238.925 231.361 240.292 234.211C241.709 237.164 355.523 149.836 357.129 153.18C358.835 156.729 246 231.994 247.507 235.133C249.207 238.671 347.876 160.333 349.746 164.226C351.118 167.088 246.532 233.368 247.865 236.14C249.406 239.345 350.894 160.893 352.261 163.738C353.753 166.841 249.55 240.581 251.097 243.793C252.379 246.456 340.89 177.465 342.352 180.502C343.585 183.069 258.958 246.324 260.405 249.324C261.742 252.102 333.795 195.296 334.923 197.646C336.022 199.936 259.5 256.827 260.693 259.316C261.787 261.593 335.923 203.865 337.101 206.323C338.091 208.384 266.332 258.002 267.455 260.34C268.678 262.883 337.171 208.848 338.304 211.204C339.577 213.856 259.077 263.992 260.34 266.619C261.434 268.891 329.19 215.959 330.24 218.14C331.159 220.056 274.387 268.903 275.207 270.602C275.272 270.735 279.16 267.674 279.225 267.812C279.314 267.999 274.337 272.446 274.406 272.591C274.441 272.657 276.858 270.801 276.888 270.867M232.053 231.976C233.938 235.899 350.352 144.418 352.336 148.552C354.007 152.023 231.133 230.023 232.774 233.44C232.819 233.53 237.866 229.806 237.9 229.885M155.829 181.105C157.783 185.172 313.548 65.7795 315.686 70.2327C317.834 74.704 161.542 172.753 163.973 177.814C166.45 182.967 313.781 66.9365 316.297 72.167C318.058 75.8308 164.51 171.119 167.081 176.471C169.677 181.876 322.906 62.5255 325.024 66.9305C327.485 72.0526 166.276 178.519 168.985 184.154C171.019 188.384 330.697 65.3818 333.084 70.3412C334.948 74.2219 173.182 179.236 175.564 184.202C177.423 188.071 331.711 68.8347 334.262 74.1375C336.156 78.0725 183.037 181.544 185.424 186.51C187.582 190.999 335.063 77.4759 336.957 81.4109C339.165 86.0027 192.643 178.236 194.791 182.707C197.292 187.908 339.632 75.0354 342.233 80.4467C344.172 84.4841 194.279 189.252 196.124 193.078C198.346 197.706 349.238 81.7001 351.103 85.5869C353.321 90.1967 196.671 193.259 199.276 198.676C201.245 202.768 347.269 90.8897 349.124 94.7463C351.192 99.0549 200.489 192.958 203.015 198.212C205.253 202.864 351.267 90.4197 353.057 94.1498C354.877 97.9401 202.742 195.121 204.79 199.393C206.73 203.431 353.788 90.8596 355.663 94.7524C358.243 100.115 205.367 203.618 207.366 207.781C209.365 211.933 335.928 113.674 337.708 117.38C339.145 120.369 213.755 199.267 215.824 203.575C217.559 207.185 338.081 113.776 339.886 117.531C341.417 120.712 216.515 207.938 218.335 211.735C220.508 216.254 338.841 123.906 340.373 127.094C342.004 130.48 215.252 212.988 216.908 216.435C218.494 219.731 336.226 129.534 337.723 132.644C339.871 137.115 211.761 224.907 213.795 229.137C215.287 232.235 342.496 134.198 344.54 138.459C346.225 141.96 213.099 233.609 215.242 238.074C217.38 242.527 346.175 143.075 347.687 146.214C349.353 149.673 226.385 230.373 227.986 233.705C228.026 233.79 232.456 230.499 232.496 230.578C232.6 230.795 224.58 235.826 224.674 236.025C224.714 236.11 227.593 233.904 227.628 233.976M145.457 183.949C147.739 188.697 318.396 57.0539 320.902 62.2664C323.761 68.22 140.793 181.237 143.761 187.42C145.735 191.523 313.672 63.5981 315.825 68.0814M88.5647 212.162C91.8364 218.972 309.152 49.172 312.757 56.6743C315.855 63.116 96.0081 207.179 98.708 212.795C102.039 219.731 315.959 54.7279 318.619 60.2718C322.04 67.3824 102.77 213.157 106.087 220.056C106.475 220.864 127.94 203.78 128.342 204.618C128.8 205.576 101.184 222.846 101.517 223.545C101.865 224.275 130.416 202.207 130.883 203.178C131.321 204.094 104.62 223.618 105.067 224.546C105.5 225.45 129.784 206.389 130.152 207.149C130.63 208.137 102 226.655 102.462 227.613C102.83 228.372 134.796 204.082 135.194 204.913C135.657 205.877 108.066 233.036 108.449 233.838C108.797 234.567 131.883 216.597 132.241 217.339C132.783 218.465 99.1903 240.225 99.6129 241.111C99.9759 241.87 127.915 220.171 128.387 221.153C128.884 222.19 102.964 250.777 103.332 251.542C103.755 252.422 133.34 229.704 133.707 230.475C134.135 231.361 110.845 252.096 111.268 252.97C111.313 253.061 114.211 250.813 114.256 250.897M298.263 58.4339C298.318 58.5484 303.578 54.5833 303.638 54.7038C303.752 54.9388 297.005 60.0729 297.095 60.2597C297.199 60.4767 308.292 52.2392 308.387 52.432M32.1797 221.623C35.0188 227.529 265.143 50.9255 268.43 57.765C272.363 65.9422 29.6936 222.949 33.3929 230.638C37.137 238.424 262.12 61.3866 265.949 69.3469C268.997 75.6862 37.0077 227.113 40.354 234.067C44.4959 242.69 277.802 60.7297 280.92 67.2197C285.007 75.7284 41.4131 226.281 45.182 234.121C49.0703 242.208 288.528 55.21 292.177 62.8147C295.792 70.3351 42.0446 234.392 45.192 240.936C48.9062 248.668 310.162 48.491 313.289 54.993C317.317 63.3691 43.4716 234.049 46.5693 240.496C47.0416 241.479 83.3488 213.362 83.9355 214.579C84.4029 215.549 54.7436 234.579 55.2209 235.573C55.6187 236.399 84.6068 213.771 85.1189 214.838C85.6211 215.886 51.6857 237.218 52.2028 238.291C52.2426 238.369 55.1911 236.11 55.2259 236.194M15.6918 225.184C18.8292 231.717 257.262 47.569 260.892 55.1256C263.92 61.4227 20.9076 217.556 24.786 225.624C24.8357 225.733 29.077 222.491 29.1317 222.611C29.2361 222.828 22.459 230.451 22.5882 230.722C22.6032 230.752 31.7272 224.329 31.7471 224.371M15.1896 220.243C15.2492 220.364 23.0258 214.621 23.0954 214.76C23.3142 215.211 9.57593 227.071 9.82454 227.595C10.0433 228.047 28.0129 214.29 28.2615 214.808C28.3908 215.073 17.8746 222.171 18.0585 222.545C18.0983 222.623 19.6646 221.31 19.7093 221.4M34.9044 203.648C34.9492 203.744 42.2981 198.417 42.3329 198.495C42.4274 198.688 37.6143 206.534 37.7088 206.727C41.5175 214.651 257.799 44.8031 261.146 51.7631M227.419 24.2425C227.459 24.3269 234.564 19.1988 234.594 19.2651C234.748 19.5905 226.141 29.4248 226.285 29.7201C226.434 30.0335 242.778 17.7164 242.982 18.1382M215.6 28.1232C215.63 28.1835 217.3 26.8759 217.325 26.9241C217.35 26.9783 215.923 28.1714 215.943 28.2136C215.973 28.2799 220.403 25.0319 220.433 25.0982M145.705 4.78467C145.725 4.82685 147.028 3.82654 147.043 3.85667C147.147 4.07963 140.505 11.6061 140.599 11.7989C140.679 11.9616 147.923 6.54425 147.988 6.67682M138.287 9.75005C138.352 9.88262 138.953 9.14143 139.008 9.24989C139.187 9.6235 129.188 20.5606 129.337 20.8619C129.76 21.7417 153.427 3.11546 153.8 3.89281C154.188 4.70029 124.519 28.756 125.056 29.8647C125.628 31.0519 158.26 5.10403 158.882 6.40564M113.814 32.7211C113.853 32.7994 116.121 31.0338 116.151 31.1001C116.18 31.1603 115.449 33.2694 115.474 33.3116C115.549 33.4623 118.214 31.2266 118.284 31.3652M95.2374 34.9567C95.2573 34.9989 96.913 33.7214 96.9379 33.7756C96.9876 33.8841 94.3623 37.2164 94.412 37.3189C94.4816 37.4635 100.732 32.7391 100.801 32.8898M90.5784 34.3782C90.6132 34.4565 91.4983 33.6069 91.548 33.7093C91.5828 33.7816 89.395 36.8127 89.4398 36.9091C89.5044 37.0477 94.3672 33.2935 94.4369 33.4442M13.4543 57.4577C14.1404 58.8858 61.5456 21.6875 62.4157 23.5013C63.0969 24.9235 13.1708 59.404 13.9763 61.0793C14.7122 62.6038 63.1665 24.5981 64.0218 26.3697C64.8074 28.0088 14.1603 65.659 14.7868 66.9546C15.5177 68.4731 67.3283 28.521 68.0443 30.0154C68.6559 31.2869 18.1381 63.9597 18.7646 65.2613C19.5999 67.0028 75.9054 23.887 76.5319 25.1946C77.3026 26.8036 20.1121 67.5753 20.9573 69.3288C21.5888 70.6485 77.3871 27.7557 78.2622 29.5815C78.9882 31.0941 29.5344 73.2999 30.3499 74.9993C30.9813 76.3069 78.6849 38.9278 79.6047 40.838C80.3406 42.3626 32.7365 79.0909 33.4973 80.6757C34.2183 82.1762 89.0718 39.2653 90.106 41.4165C90.9861 43.2484 37.4502 82.363 38.2706 84.0683C39.28 86.1654 101.085 37.0116 102.343 39.6268C103.218 41.4467 37.9126 90.8114 38.7181 92.4987C40.4634 96.1323 161.517 2.25979 163.342 6.06218C164.903 9.31017 34.9442 103.189 37.0823 107.636C38.9369 111.493 164.416 14.4985 166.156 18.1141C167.941 21.8261 38.7728 104.153 40.9407 108.66C42.6512 112.216 176.2 9.71994 178.05 13.5645C179.815 17.2403 42.6064 111.547 44.7643 116.036C46.9869 120.658 172.292 21.2717 174.569 26.0081C176.677 30.4011 42.9843 125.473 45.1025 129.884C47.1162 134.072 197.243 19.1084 199.137 23.0494C201.524 28.0208 45.3163 137.501 47.7676 142.605C50.01 147.269 202.215 29.0512 204.537 33.878C206.555 38.0721 50.1343 141.195 52.2774 145.66C54.9475 151.216 214.422 27.6291 216.43 31.8111C218.747 36.6379 44.8588 147.516 47.146 152.27C49.2742 156.699 218.991 25.4357 221.751 31.1724C224.475 36.8428 45.3908 155.693 48.3046 161.749C50.7857 166.907 244.021 17.9333 246.93 23.9894C250.072 30.5336 41.4479 167.926 43.8793 172.988C47.0963 179.688 242.947 27.84 245.498 33.1489C248.571 39.5425 37.5397 180.683 40.2943 186.413C42.7655 191.554 255.124 27.8521 258.575 35.023C261.504 41.1213 42.6412 178.658 46.0621 185.781C49.4631 192.855 255.83 32.1365 258.769 38.2529C261.951 44.8754 37.674 186.148 41.1943 193.482C44.287 199.918 250.346 40.3258 253.265 46.4C255.8 51.6727 36.4906 192.584 40.0507 199.996C43.1533 206.456 253.021 43.4051 256.223 50.0698M47.3549 2.26581C47.3897 2.33812 48.5582 1.34986 48.588 1.41012C48.6775 1.60295 42.9694 5.89947 43.0688 6.10435C43.1235 6.21884 46.4997 3.60357 46.5444 3.69396C46.624 3.85666 42.9843 9.76814 43.0589 9.91879C43.1384 10.0875 50.0697 4.87505 50.1343 5.00762M15.2342 12.8414C15.3038 12.986 18.7694 10.2201 18.8291 10.3466C19.1026 10.907 1.73458 33.866 2.00308 34.4264C2.41578 35.2881 27.8388 15.4807 28.2117 16.2521C28.5597 16.9812 4.60355 35.9931 4.9715 36.7524C5.44883 37.7467 37.3854 12.9257 37.8727 13.9321C38.3948 15.0167 7.35319 43.4051 7.93992 44.6223C8.47692 45.7371 54.5744 10.1658 55.3351 11.7507C55.9666 13.0643 10.2769 55.4148 11.0625 57.0479C11.9475 58.8858 67.1143 16.2942 67.7906 17.7043C68.5314 19.247 9.75478 57.072 10.6746 58.9882C10.6995 59.0364 12.7232 57.4817 12.758 57.542" stroke="url(#paint0_linear_2352_1024)" stroke-width="2.71349" stroke-linecap="round" stroke-linejoin="round"/>
<defs>
<linearGradient id="paint0_linear_2352_1024" x1="360" y1="137" x2="2.4572" y2="137" gradientUnits="userSpaceOnUse">
<stop stop-color="#BB48F8"/>
<stop offset="1" stop-color="#D48BFB"/>
</linearGradient>
</defs>
</svg>
